<svg width="530" height="480" viewBox="0 0 530 480" fill="none" xmlns="http://www.w3.org/2000/svg">
<g id="online 1" clip-path="url(#clip0)">
<path id="Vector" d="M430.304 192.771C402.133 171.711 358.012 151.794 309.252 138.128C264.857 125.684 221.554 119.676 187.313 121.21L187.135 117.228C221.784 115.677 265.535 121.735 310.328 134.29C359.542 148.084 404.142 168.236 432.691 189.578L430.304 192.771Z" fill="#3F3D56"/>
<path id="Vector_2" d="M427.379 208.992C427.404 227.651 423.493 246.105 415.9 263.148C415.266 264.575 414.606 265.989 413.919 267.389C400.713 294.438 378.731 316.214 351.559 329.166C324.388 342.117 293.629 345.48 264.301 338.705C234.973 331.93 208.805 315.417 190.067 291.86C171.329 268.304 161.125 239.093 161.121 208.992C161.121 205.911 161.226 202.854 161.436 199.82C161.536 198.278 161.665 196.745 161.823 195.221C165.353 161.289 181.775 130.007 207.698 107.83C233.622 85.6539 267.069 74.2749 301.138 76.0416C335.208 77.8084 367.299 92.5861 390.789 117.325C414.28 142.064 427.378 174.877 427.379 208.992H427.379Z" fill="#F2F2F2"/>
<path id="Vector_3" opacity="0.1" d="M415.9 263.148C415.266 264.575 414.606 265.989 413.919 267.389C410.029 267.812 405.934 268.119 401.634 268.31C398.075 268.47 394.412 268.549 390.669 268.549C357.977 268.549 318.632 262.515 278.438 251.251C233.645 238.695 193.12 221.133 164.326 201.798C163.345 201.14 162.382 200.481 161.436 199.821C161.536 198.278 161.665 196.745 161.823 195.221C163.349 196.309 164.924 197.398 166.546 198.489C195.001 217.594 235.119 234.968 279.514 247.412C319.357 258.581 358.332 264.564 390.649 264.564C394.344 264.564 397.946 264.485 401.455 264.328C406.565 264.097 411.38 263.704 415.9 263.148Z" fill="black"/>
<path id="Vector_4" d="M390.67 265.361C357.978 265.362 318.631 259.327 278.439 248.062C233.646 235.507 193.12 217.944 164.325 198.609C134.93 178.871 121.146 159.421 125.512 143.843C129.878 128.266 151.763 118.814 187.135 117.228L187.313 121.21C170.795 121.951 157.333 124.406 147.302 128.508C137.295 132.599 131.255 138.121 129.35 144.919C127.444 151.717 129.735 159.574 136.157 168.271C142.595 176.988 152.82 186.082 166.547 195.3C194.999 214.405 235.119 231.78 279.515 244.224C319.359 255.391 358.33 261.376 390.65 261.376C394.343 261.376 397.944 261.298 401.454 261.141C417.972 260.4 431.434 257.946 441.465 253.844C451.472 249.752 457.512 244.23 459.418 237.432C462.839 225.225 452.499 209.364 430.304 192.771L432.691 189.579C444.112 198.117 452.567 206.534 457.82 214.595C463.452 223.237 465.281 231.282 463.256 238.508C458.889 254.086 437.004 263.537 401.632 265.123C398.073 265.282 394.412 265.361 390.67 265.361Z" fill="#3F3D56"/>
<path id="Vector_5" d="M297.772 51.853C298.615 51.853 299.298 51.17 299.298 50.3275C299.298 49.4849 298.615 48.8019 297.772 48.8019C296.929 48.8019 296.246 49.4849 296.246 50.3275C296.246 51.17 296.929 51.853 297.772 51.853Z" fill="#F2F2F2"/>
<path id="Vector_6" d="M95.3852 118.051C96.8346 118.051 98.0096 116.876 98.0096 115.426C98.0096 113.977 96.8346 112.802 95.3852 112.802C93.9358 112.802 92.7608 113.977 92.7608 115.426C92.7608 116.876 93.9358 118.051 95.3852 118.051Z" fill="#CCCCCC"/>
<path id="Vector_7" d="M89.7916 223.33C92.6549 223.33 94.9761 221.009 94.9761 218.145C94.9761 215.282 92.6549 212.961 89.7916 212.961C86.9282 212.961 84.6071 215.282 84.6071 218.145C84.6071 221.009 86.9282 223.33 89.7916 223.33Z" fill="#CCCCCC"/>
<path id="Vector_8" d="M400.999 62.936C402.908 62.936 404.455 61.389 404.455 59.4807C404.455 57.5723 402.908 56.0253 400.999 56.0253C399.091 56.0253 397.544 57.5723 397.544 59.4807C397.544 61.389 399.091 62.936 400.999 62.936Z" fill="#CCCCCC"/>
<path id="Vector_9" d="M523.55 208.5C526.649 208.5 529.16 205.988 529.16 202.89C529.16 199.791 526.649 197.28 523.55 197.28C520.452 197.28 517.94 199.791 517.94 202.89C517.94 205.988 520.452 208.5 523.55 208.5Z" fill="#CCCCCC"/>
<path id="Vector_10" d="M479.681 115.694C481.011 115.694 482.089 114.616 482.089 113.287C482.089 111.957 481.011 110.88 479.681 110.88C478.352 110.88 477.274 111.957 477.274 113.287C477.274 114.616 478.352 115.694 479.681 115.694Z" fill="#CCCCCC"/>
<path id="Vector_11" d="M187.425 86.1186C189.499 86.1186 191.18 84.4374 191.18 82.3636C191.18 80.2897 189.499 78.6086 187.425 78.6086C185.352 78.6086 183.67 80.2897 183.67 82.3636C183.67 84.4374 185.352 86.1186 187.425 86.1186Z" fill="#CCCCCC"/>
<path id="Vector_12" d="M471.257 193.921C472.586 193.921 473.664 192.844 473.664 191.514C473.664 190.185 472.586 189.107 471.257 189.107C469.928 189.107 468.85 190.185 468.85 191.514C468.85 192.844 469.928 193.921 471.257 193.921Z" fill="#CCCCCC"/>
<path id="Vector_13" d="M2.99584 203.366C4.6504 203.366 5.99168 202.025 5.99168 200.371C5.99168 198.716 4.6504 197.375 2.99584 197.375C1.34128 197.375 0 198.716 0 200.371C0 202.025 1.34128 203.366 2.99584 203.366Z" fill="#CCCCCC"/>
<path id="Vector_14" d="M48.5084 154.313C50.3002 154.313 51.7528 152.86 51.7528 151.068C51.7528 149.277 50.3002 147.824 48.5084 147.824C46.7167 147.824 45.2641 149.277 45.2641 151.068C45.2641 152.86 46.7167 154.313 48.5084 154.313Z" fill="#CCCCCC"/>
<path id="Vector_15" d="M256.822 6.402H250.42V0H246.985V6.402H240.58V9.84H246.985V16.242H250.42V9.84H256.822V6.402Z" fill="#CCCCCC"/>
<path id="Vector_16" d="M405.335 352.829H401.314V348.81H399.158V352.829H395.138V354.986H399.158V359.006H401.314V354.986H405.335V352.829Z" fill="#CCCCCC"/>
<path id="Vector_17" d="M498.123 332.252H495.118V329.247H493.504V332.252H490.499V333.866H493.504V336.871H495.118V333.866H498.123V332.252Z" fill="#CCCCCC"/>
<path id="Vector_18" opacity="0.1" d="M210.308 197.805C216.487 197.805 221.496 192.796 221.496 186.618C221.496 180.439 216.487 175.43 210.308 175.43C204.13 175.43 199.121 180.439 199.121 186.618C199.121 192.796 204.13 197.805 210.308 197.805Z" fill="black"/>
<path id="Vector_19" opacity="0.1" d="M333.876 310.185C340.055 310.185 345.063 305.177 345.063 298.998C345.063 292.82 340.055 287.811 333.876 287.811C327.698 287.811 322.689 292.82 322.689 298.998C322.689 305.177 327.698 310.185 333.876 310.185Z" fill="black"/>
<path id="Vector_20" opacity="0.1" d="M296.246 215.094C302.425 215.094 307.434 210.085 307.434 203.907C307.434 197.728 302.425 192.72 296.246 192.72C290.068 192.72 285.059 197.728 285.059 203.907C285.059 210.085 290.068 215.094 296.246 215.094Z" fill="black"/>
<path id="Vector_21" opacity="0.1" d="M215.902 276.624C222.08 276.624 227.089 271.615 227.089 265.437C227.089 259.258 222.08 254.249 215.902 254.249C209.723 254.249 204.715 259.258 204.715 265.437C204.715 271.615 209.723 276.624 215.902 276.624Z" fill="black"/>
<path id="Vector_22" opacity="0.1" d="M356.251 155.09C362.429 155.09 367.438 150.081 367.438 143.903C367.438 137.724 362.429 132.716 356.251 132.716C350.072 132.716 345.063 137.724 345.063 143.903C345.063 150.081 350.072 155.09 356.251 155.09Z" fill="black"/>
<path id="Vector_23" opacity="0.1" d="M393.372 230.858C399.55 230.858 404.559 225.849 404.559 219.671C404.559 213.492 399.55 208.484 393.372 208.484C387.193 208.484 382.185 213.492 382.185 219.671C382.185 225.849 387.193 230.858 393.372 230.858Z" fill="black"/>
<path id="Vector_24" d="M356.251 111.867C364.395 111.867 370.997 105.264 370.997 97.1199C370.997 88.9755 364.395 82.3732 356.251 82.3732C348.106 82.3732 341.504 88.9755 341.504 97.1199C341.504 105.264 348.106 111.867 356.251 111.867Z" fill="white"/>
<path id="Vector_25" d="M356.251 75.7626C350.721 75.7626 345.418 77.9592 341.508 81.8691C337.598 85.779 335.402 91.082 335.402 96.6114C335.402 108.126 356.251 145.937 356.251 145.937C356.251 145.937 377.099 108.126 377.099 96.6114C377.099 91.082 374.903 85.779 370.993 81.8691C367.083 77.9592 361.78 75.7626 356.251 75.7626ZM356.251 106.782C354.34 106.782 352.472 106.215 350.883 105.153C349.294 104.092 348.056 102.583 347.324 100.817C346.593 99.0519 346.402 97.1092 346.775 95.235C347.147 93.3608 348.068 91.6393 349.419 90.2881C350.77 88.9369 352.492 88.0167 354.366 87.6439C356.24 87.2711 358.183 87.4624 359.948 88.1937C361.713 88.925 363.222 90.1633 364.284 91.7522C365.346 93.3411 365.912 95.209 365.912 97.1199C365.912 98.3887 365.662 99.6451 365.177 100.817C364.691 101.99 363.98 103.055 363.082 103.952C362.185 104.849 361.12 105.561 359.948 106.046C358.776 106.532 357.519 106.782 356.251 106.782Z" fill="#FF6377"/>
<path id="Vector_26" d="M210.251 151.867C218.395 151.867 224.997 145.264 224.997 137.12C224.997 128.976 218.395 122.373 210.251 122.373C202.106 122.373 195.504 128.976 195.504 137.12C195.504 145.264 202.106 151.867 210.251 151.867Z" fill="white"/>
<path id="Vector_27" d="M210.251 115.763C204.721 115.763 199.418 117.959 195.508 121.869C191.598 125.779 189.402 131.082 189.402 136.611C189.402 148.126 210.251 185.937 210.251 185.937C210.251 185.937 231.099 148.126 231.099 136.611C231.099 131.082 228.903 125.779 224.993 121.869C221.083 117.959 215.78 115.763 210.251 115.763V115.763ZM210.251 146.782C208.34 146.782 206.472 146.215 204.883 145.153C203.294 144.092 202.056 142.583 201.324 140.817C200.593 139.052 200.402 137.109 200.774 135.235C201.147 133.361 202.068 131.639 203.419 130.288C204.77 128.937 206.491 128.017 208.366 127.644C210.24 127.271 212.183 127.462 213.948 128.194C215.713 128.925 217.222 130.163 218.284 131.752C219.346 133.341 219.912 135.209 219.912 137.12C219.912 138.389 219.662 139.645 219.177 140.817C218.691 141.99 217.98 143.055 217.082 143.952C216.185 144.849 215.12 145.561 213.948 146.046C212.776 146.532 211.519 146.782 210.251 146.782V146.782Z" fill="#3F3D56"/>
<path id="Vector_28" d="M395.251 185.867C403.395 185.867 409.997 179.264 409.997 171.12C409.997 162.976 403.395 156.373 395.251 156.373C387.106 156.373 380.504 162.976 380.504 171.12C380.504 179.264 387.106 185.867 395.251 185.867Z" fill="white"/>
<path id="Vector_29" d="M395.251 149.763C389.721 149.763 384.418 151.959 380.508 155.869C376.598 159.779 374.402 165.082 374.402 170.611C374.402 182.126 395.251 219.937 395.251 219.937C395.251 219.937 416.099 182.126 416.099 170.611C416.099 165.082 413.903 159.779 409.993 155.869C406.083 151.959 400.78 149.763 395.251 149.763V149.763ZM395.251 180.782C393.34 180.782 391.472 180.215 389.883 179.153C388.294 178.092 387.056 176.583 386.324 174.817C385.593 173.052 385.402 171.109 385.775 169.235C386.147 167.361 387.068 165.639 388.419 164.288C389.77 162.937 391.492 162.017 393.366 161.644C395.24 161.271 397.183 161.462 398.948 162.194C400.713 162.925 402.222 164.163 403.284 165.752C404.346 167.341 404.912 169.209 404.912 171.12C404.912 172.389 404.662 173.645 404.177 174.817C403.691 175.99 402.98 177.055 402.082 177.952C401.185 178.849 400.12 179.561 398.948 180.046C397.776 180.532 396.519 180.782 395.251 180.782Z" fill="#CCCCCC"/>
<path id="Vector_30" d="M145.251 259.867C153.395 259.867 159.997 253.264 159.997 245.12C159.997 236.976 153.395 230.373 145.251 230.373C137.106 230.373 130.504 236.976 130.504 245.12C130.504 253.264 137.106 259.867 145.251 259.867Z" fill="white"/>
<path id="Vector_31" d="M145.251 223.763C139.721 223.763 134.418 225.959 130.508 229.869C126.598 233.779 124.402 239.082 124.402 244.611C124.402 256.126 145.251 293.937 145.251 293.937C145.251 293.937 166.099 256.126 166.099 244.611C166.099 239.082 163.903 233.779 159.993 229.869C156.083 225.959 150.78 223.763 145.251 223.763ZM145.251 254.782C143.34 254.782 141.472 254.215 139.883 253.153C138.294 252.092 137.056 250.583 136.324 248.817C135.593 247.052 135.402 245.109 135.775 243.235C136.147 241.361 137.068 239.639 138.419 238.288C139.77 236.937 141.492 236.017 143.366 235.644C145.24 235.271 147.183 235.462 148.948 236.194C150.713 236.925 152.222 238.163 153.284 239.752C154.346 241.341 154.912 243.209 154.912 245.12C154.912 246.389 154.662 247.645 154.177 248.817C153.691 249.99 152.98 251.055 152.082 251.952C151.185 252.849 150.12 253.561 148.948 254.046C147.776 254.532 146.519 254.782 145.251 254.782V254.782Z" fill="#FF6377"/>
<path id="Vector_32" d="M484.69 363.53C487.553 361.133 483.684 351.798 476.049 342.68C468.415 333.561 459.905 328.112 457.042 330.509C454.18 332.906 458.048 342.241 465.683 351.359C473.318 360.478 481.828 365.927 484.69 363.53Z" fill="#2F2E41"/>
<path id="Vector_33" d="M425.059 382.609C448.845 382.609 468.126 363.327 468.126 339.542C468.126 315.756 448.845 296.474 425.059 296.474C401.274 296.474 381.992 315.756 381.992 339.542C381.992 363.327 401.274 382.609 425.059 382.609Z" fill="#2F2E41"/>
<path id="Vector_34" d="M443.288 373.341H430.204V396.783H443.288V373.341Z" fill="#2F2E41"/>
<path id="Vector_35" d="M417.12 373.341H404.037V396.783H417.12V373.341Z" fill="#2F2E41"/>
<path id="Vector_36" d="M432.385 401.144C438.406 401.144 443.288 399.313 443.288 397.055C443.288 394.797 438.406 392.967 432.385 392.967C426.363 392.967 421.482 394.797 421.482 397.055C421.482 399.313 426.363 401.144 432.385 401.144Z" fill="#2F2E41"/>
<path id="Vector_37" d="M406.217 400.599C412.239 400.599 417.12 398.768 417.12 396.51C417.12 394.252 412.239 392.422 406.217 392.422C400.196 392.422 395.314 394.252 395.314 396.51C395.314 398.768 400.196 400.599 406.217 400.599Z" fill="#2F2E41"/>
<path id="Vector_38" d="M411.536 285.405C415.382 269.918 432.357 260.804 449.451 265.048C466.545 269.293 477.285 285.289 473.44 300.776C469.594 316.263 456.836 316.313 439.742 312.068C422.648 307.823 407.691 300.892 411.536 285.405Z" fill="#FF6377"/>
<path id="Vector_39" d="M396.007 328.786C397.607 325.412 390.193 318.546 379.448 313.45C368.702 308.354 358.695 306.957 357.095 310.33C355.495 313.703 362.909 320.569 373.654 325.666C384.4 330.762 394.407 332.159 396.007 328.786Z" fill="#2F2E41"/>
<path id="Vector_40" d="M418.621 344.813C426.551 344.813 432.979 338.384 432.979 330.454C432.979 322.524 426.551 316.095 418.621 316.095C410.69 316.095 404.262 322.524 404.262 330.454C404.262 338.384 410.69 344.813 418.621 344.813Z" fill="white"/>
<path id="Vector_41" d="M412.719 330.093C415.363 330.093 417.505 327.951 417.505 325.307C417.505 322.664 415.363 320.521 412.719 320.521C410.076 320.521 407.933 322.664 407.933 325.307C407.933 327.951 410.076 330.093 412.719 330.093Z" fill="#3F3D56"/>
<path id="Vector_42" d="M427.628 360.369C427.853 361.606 427.832 362.875 427.567 364.104C427.302 365.333 426.797 366.497 426.082 367.531C425.366 368.565 424.455 369.447 423.398 370.128C422.342 370.81 421.161 371.276 419.925 371.501C418.688 371.727 417.419 371.706 416.19 371.441C414.961 371.175 413.797 370.671 412.763 369.955C411.73 369.24 410.847 368.328 410.166 367.272C409.484 366.215 409.018 365.035 408.793 363.798V363.798L408.789 363.78C407.847 358.578 411.87 356.737 417.072 355.795C422.274 354.853 426.686 355.167 427.628 360.369Z" fill="white"/>
<path id="Vector_43" d="M336.364 248.049C331.934 244.311 326.514 241.941 320.762 241.228C315.01 240.515 309.175 241.489 303.967 244.031C298.758 246.574 294.401 250.575 291.426 255.549C288.45 260.523 286.984 266.254 287.207 272.046C287.429 277.837 289.33 283.439 292.678 288.17C296.026 292.901 300.677 296.557 306.065 298.693C311.453 300.828 317.346 301.352 323.026 300.2C328.706 299.048 333.929 296.27 338.059 292.203L374.732 323.148C375.291 323.619 376.013 323.849 376.74 323.788C377.468 323.727 378.142 323.379 378.613 322.822C379.085 322.264 379.316 321.542 379.255 320.814C379.194 320.086 378.847 319.412 378.29 318.94L378.286 318.937L341.612 287.992C345.873 281.878 347.696 274.392 346.725 267.004C345.754 259.615 342.059 252.855 336.364 248.049V248.049ZM334 285.012C331.142 288.398 327.346 290.861 323.089 292.089C318.832 293.317 314.307 293.255 310.085 291.911C305.864 290.567 302.136 288.002 299.372 284.539C296.609 281.077 294.934 276.872 294.56 272.458C294.186 268.043 295.129 263.617 297.271 259.739C299.413 255.861 302.656 252.704 306.591 250.67C310.527 248.635 314.977 247.812 319.38 248.307C323.782 248.801 327.939 250.59 331.325 253.447V253.447C335.866 257.278 338.698 262.756 339.2 268.676C339.701 274.595 337.831 280.472 334 285.012V285.012Z" fill="#3F3D56"/>
<path id="Vector_44" opacity="0.3" d="M302.434 287.686C298.137 284.06 295.361 278.95 294.657 273.372C293.953 267.793 295.372 262.154 298.633 257.574C298.205 258.005 297.791 258.457 297.391 258.929C295.494 261.177 294.059 263.777 293.166 266.58C292.274 269.383 291.943 272.334 292.191 275.265C292.439 278.196 293.263 281.05 294.614 283.663C295.965 286.276 297.817 288.597 300.066 290.494C302.314 292.391 304.913 293.827 307.716 294.719C310.519 295.611 313.471 295.942 316.402 295.694C319.333 295.446 322.186 294.623 324.799 293.272C327.412 291.92 329.734 290.068 331.631 287.82C332.029 287.347 332.405 286.863 332.757 286.367C328.791 290.353 323.471 292.701 317.853 292.945C312.236 293.189 306.732 291.312 302.434 287.686V287.686Z" fill="black"/>
<path id="Vector_45" d="M147.984 309.433C152.23 298.324 152.845 288.238 149.357 286.905C145.87 285.572 139.601 293.497 135.355 304.606C131.109 315.715 130.494 325.801 133.981 327.134C137.468 328.467 143.738 320.542 147.984 309.433Z" fill="#2F2E41"/>
<path id="Vector_46" d="M101.862 382.609C125.647 382.609 144.929 363.327 144.929 339.541C144.929 315.756 125.647 296.474 101.862 296.474C78.0765 296.474 58.7946 315.756 58.7946 339.541C58.7946 363.327 78.0765 382.609 101.862 382.609Z" fill="#2F2E41"/>
<path id="Vector_47" d="M95.32 373.341H82.2363V396.783H95.32V373.341Z" fill="#2F2E41"/>
<path id="Vector_48" d="M121.488 373.341H108.404V396.783H121.488V373.341Z" fill="#2F2E41"/>
<path id="Vector_49" d="M93.1394 401.144C99.1611 401.144 104.043 399.313 104.043 397.055C104.043 394.797 99.1611 392.967 93.1394 392.967C87.1178 392.967 82.2363 394.797 82.2363 397.055C82.2363 399.313 87.1178 401.144 93.1394 401.144Z" fill="#2F2E41"/>
<path id="Vector_50" d="M119.307 400.599C125.329 400.599 130.21 398.768 130.21 396.51C130.21 394.252 125.329 392.422 119.307 392.422C113.285 392.422 108.404 394.252 108.404 396.51C108.404 398.768 113.285 400.599 119.307 400.599Z" fill="#2F2E41"/>
<path id="Vector_51" d="M102.952 343.357C111.081 343.357 117.671 336.767 117.671 328.638C117.671 320.509 111.081 313.919 102.952 313.919C94.823 313.919 88.233 320.509 88.233 328.638C88.233 336.767 94.823 343.357 102.952 343.357Z" fill="white"/>
<path id="Vector_52" d="M102.952 333.545C105.662 333.545 107.859 331.348 107.859 328.638C107.859 325.929 105.662 323.732 102.952 323.732C100.242 323.732 98.0458 325.929 98.0458 328.638C98.0458 331.348 100.242 333.545 102.952 333.545Z" fill="#3F3D56"/>
<path id="Vector_53" d="M60.0852 299.49C56.6077 283.916 67.7238 268.18 84.9138 264.341C102.104 260.503 118.858 270.016 122.335 285.59C125.813 301.164 114.421 306.908 97.2306 310.746C80.0407 314.584 63.5627 315.064 60.0852 299.49Z" fill="#FF6377"/>
<path id="Vector_54" d="M72.8101 328.786C74.41 325.412 66.9961 318.546 56.2506 313.45C45.5052 308.354 35.4974 306.957 33.8975 310.33C32.2976 313.703 39.7115 320.57 50.4569 325.666C61.2023 330.762 71.2101 332.159 72.8101 328.786Z" fill="#2F2E41"/>
<path id="Vector_55" d="M80.7074 355.078C80.7074 359.294 91.5607 367.617 103.604 367.617C115.647 367.617 126.939 355.75 126.939 351.535C126.939 347.32 115.647 352.353 103.604 352.353C91.5608 352.353 80.7074 350.863 80.7074 355.078Z" fill="white"/>
<path id="Vector_56" d="M241.581 460.609C265.367 460.609 284.648 441.327 284.648 417.541C284.648 393.756 265.367 374.474 241.581 374.474C217.796 374.474 198.514 393.756 198.514 417.541C198.514 441.327 217.796 460.609 241.581 460.609Z" fill="#2F2E41"/>
<path id="Vector_57" d="M235.039 451.341H221.956V474.783H235.039V451.341Z" fill="#2F2E41"/>
<path id="Vector_58" d="M261.207 451.341H248.123V474.783H261.207V451.341Z" fill="#2F2E41"/>
<path id="Vector_59" d="M232.859 479.144C238.88 479.144 243.762 477.313 243.762 475.055C243.762 472.797 238.88 470.967 232.859 470.967C226.837 470.967 221.955 472.797 221.955 475.055C221.955 477.313 226.837 479.144 232.859 479.144Z" fill="#2F2E41"/>
<path id="Vector_60" d="M259.026 478.599C265.048 478.599 269.929 476.768 269.929 474.51C269.929 472.252 265.048 470.422 259.026 470.422C253.005 470.422 248.123 472.252 248.123 474.51C248.123 476.768 253.005 478.599 259.026 478.599Z" fill="#2F2E41"/>
<path id="Vector_61" d="M199.804 377.49C196.327 361.916 207.443 346.18 224.633 342.341C241.823 338.503 258.577 348.016 262.055 363.59C265.532 379.164 254.14 384.908 236.95 388.746C219.76 392.584 203.282 393.064 199.804 377.49Z" fill="#3F3D56"/>
<path id="Vector_62" d="M241.754 410.079C241.754 410.079 244.878 396.333 238.942 396.958C233.007 397.582 224.884 397.895 222.697 397.895C220.51 397.895 208.014 396.333 206.139 404.455C204.265 412.578 201.765 422.575 207.076 428.824C207.076 428.824 208.951 456.316 216.136 458.19C223.322 460.065 242.379 462.252 249.252 453.192C251.264 450.496 252.669 447.398 253.37 444.108C254.071 440.818 254.052 437.416 253.313 434.135H250.189L241.754 410.079Z" fill="#FF6377"/>
<path id="Vector_63" opacity="0.1" d="M210.201 431.01C210.201 431.01 215.511 433.51 226.446 431.948V436.634L210.201 435.384V431.01Z" fill="black"/>
<path id="Vector_64" d="M249.891 446.675L246.355 444.806L262.085 415.04C262.675 413.923 262.971 412.673 262.944 411.409C262.917 410.146 262.568 408.91 261.93 407.818C261.293 406.727 260.387 405.817 259.299 405.173C258.212 404.529 256.978 404.174 255.714 404.14L239.207 403.695L239.314 399.696L255.822 400.141C257.765 400.193 259.664 400.74 261.337 401.731C263.01 402.721 264.403 404.122 265.384 405.8C266.365 407.479 266.901 409.38 266.943 411.324C266.984 413.268 266.53 415.19 265.621 416.909L249.891 446.675Z" fill="#FF6377"/>
<path id="Vector_65" d="M211.874 446.675L196.144 416.909C195.236 415.19 194.781 413.268 194.822 411.324C194.864 409.38 195.4 407.479 196.381 405.8C197.362 404.122 198.755 402.721 200.428 401.731C202.102 400.74 204 400.193 205.943 400.141L222.451 399.696L222.558 403.695L206.051 404.14C204.787 404.174 203.553 404.529 202.466 405.173C201.378 405.817 200.473 406.727 199.835 407.819C199.197 408.91 198.848 410.146 198.821 411.409C198.794 412.673 199.09 413.923 199.681 415.04L215.41 444.806L211.874 446.675Z" fill="#FF6377"/>
<path id="Vector_66" d="M296.804 428.592C298.741 424.93 290.856 416.96 279.192 410.79C267.528 404.62 256.502 402.587 254.565 406.248C252.628 409.91 260.514 417.88 272.178 424.05C283.842 430.22 294.867 432.254 296.804 428.592Z" fill="#2F2E41"/>
</g>
<defs>
<clipPath id="clip0">
<rect width="529.16" height="479.144" fill="white"/>
</clipPath>
</defs>
</svg>
